HIERARCHY
ROOT hip
{
	OFFSET 0.000000 0.000000 0.000000
	CHANNELS 6 Xposition Yposition Zposition Xrotation Zrotation Yrotation 
	JOINT abdomen
	{
		OFFSET 0.000000 3.422050 0.000000
		CHANNELS 3 Xrotation Zrotation Yrotation 
		JOINT chest
		{
			OFFSET 0.000000 8.486693 -0.684411
			CHANNELS 3 Xrotation Zrotation Yrotation 
			JOINT neck
			{
				OFFSET 0.000000 10.266162 -0.273764
				CHANNELS 3 Xrotation Zrotation Yrotation 
				JOINT head
				{
					OFFSET 0.000000 3.148285 0.000000
					CHANNELS 3 Xrotation Zrotation Yrotation 
					End Site
					{
						OFFSET 0.000000 3.148289 0.000000
					}
				}
			}
			JOINT lCollar
			{
				OFFSET 3.422053 6.707223 -0.821293
				CHANNELS 3 Yrotation Zrotation Xrotation 
				JOINT lShldr
				{
					OFFSET 3.285171 0.000000 0.000000
					CHANNELS 3 Zrotation Yrotation Xrotation 
					JOINT lForeArm
					{
						OFFSET 10.129278 0.000000 0.000000
						CHANNELS 3 Yrotation Zrotation Xrotation 
						JOINT lHand
						{
							OFFSET 8.486692 0.000000 0.000000
							CHANNELS 3 Zrotation Yrotation Xrotation 
							End Site
							{
								OFFSET 4.106464 0.000000 0.000000
							}
						}
					}
				}
			}
			JOINT rCollar
			{
				OFFSET -3.558935 6.707223 -0.821293
				CHANNELS 3 Yrotation Zrotation Xrotation 
				JOINT rShldr
				{
					OFFSET -3.148289 0.000000 0.000000
					CHANNELS 3 Zrotation Yrotation Xrotation 
					JOINT rForeArm
					{
						OFFSET -10.266159 0.000000 0.000000
						CHANNELS 3 Yrotation Zrotation Xrotation 
						JOINT rHand
						{
							OFFSET -8.349810 0.000000 0.000000
							CHANNELS 3 Zrotation Yrotation Xrotation 
							End Site
							{
								OFFSET -4.106464 0.000000 0.000000
							}
						}
					}
				}
			}
		}
	}
	JOINT lThigh
	{
		OFFSET 5.338403 -1.642589 1.368821
		CHANNELS 3 Xrotation Zrotation Yrotation 
		JOINT lShin
		{
			OFFSET -2.053232 -20.121670 0.000000
			CHANNELS 3 Xrotation Zrotation Yrotation 
			JOINT lFoot
			{
				OFFSET 0.000000 -19.300380 -1.231939
				CHANNELS 3 Xrotation Yrotation Zrotation 
				End Site
				{
					OFFSET 0.000000 -2.463878 4.653993
				}
			}
		}
	}
	JOINT rThigh
	{
		OFFSET -5.338403 -1.642589 1.368821
		CHANNELS 3 Xrotation Zrotation Yrotation 
		JOINT rShin
		{
			OFFSET 2.053232 -20.121670 0.000000
			CHANNELS 3 Xrotation Zrotation Yrotation 
			JOINT rFoot
			{
				OFFSET 0.000000 -19.300380 -1.231939
				CHANNELS 3 Xrotation Yrotation Zrotation 
				End Site
				{
					OFFSET 0.000000 -2.463878 4.653993
				}
			}
		}
	}
}
MOTION
Frames: 15
Frame Time: 0.049897
0.000000 43.528500 0.000000 0.000000 0.000000 0.000000 0.000000 0.000000 0.000000 0.000000 0.000000 0.000000 0.000000 0.000000 0.000000 0.000000 0.000000 0.000000 0.000000 0.000000 0.000000 0.000000 0.000000 0.000000 0.000000 0.000000 0.000000 0.000000 0.000000 0.000000 0.000000 0.000000 0.000000 0.000000 0.000000 0.000000 0.000000 0.000000 0.000000 0.000000 0.000000 0.000000 0.000000 0.000000 0.000000 0.000000 0.000000 0.000000 0.000000 0.000000 0.000000 0.000000 0.000000 0.000000 0.000000 0.000000 0.000000 0.000000 0.000000 0.000000 
3.937916 21.526112 5.926380 0.000000 0.000000 -41.000301 -1.410386 4.905664 0.210876 -3.284446 9.685242 -0.546939 20.996786 0.000000 0.000000 16.998995 2.997137 -17.002583 2.184243 -36.544212 4.163931 -30.974482 -10.395336 -20.941187 3.120794 -32.529968 25.252251 19.998167 0.000000 0.000000 -5.042381 6.056974 1.443014 26.452461 -16.557037 -2.028678 51.663689 12.959668 -40.901787 6.996825 0.000000 0.000000 -21.213114 18.766693 4.461598 118.012299 10.037420 -5.194992 55.155239 16.212271 5.573445 -21.212612 -18.770821 -4.464533 118.012230 -10.036211 5.190171 55.155178 -16.217051 -5.574986 
3.937916 21.526112 5.926380 0.000000 0.000000 -41.000301 -1.410386 4.905664 0.210876 -2.706730 9.535208 -0.447776 20.996786 0.000000 0.000000 17.254280 2.927243 -16.989836 2.184243 -36.544216 4.163932 -30.974482 -10.395336 -20.941187 2.710468 -32.421665 24.961617 19.998167 0.000000 0.000000 -4.788023 5.878205 1.408324 26.147383 -16.244886 -1.969224 51.789013 12.537739 -41.026268 6.858317 0.134449 -0.497474 -21.213114 18.766693 4.461598 118.012299 10.037420 -5.194992 55.155239 16.212271 5.573446 -21.212612 -18.770821 -4.464533 118.012230 -10.036211 5.190171 55.155178 -16.217052 -5.574986 
3.937916 21.526112 5.926380 0.000000 0.000000 -41.000305 -1.410387 4.905665 0.210876 -2.128303 9.383873 -0.349990 20.996788 0.000000 0.000000 17.509645 2.857264 -16.977398 2.184243 -36.544216 4.163932 -30.974482 -10.395336 -20.941187 2.300960 -32.311527 24.672028 19.998167 0.000000 0.000000 -4.533709 5.699181 1.374423 25.842794 -15.932096 -1.911532 51.913357 12.115036 -41.149757 6.718406 0.267920 -0.996137 -21.213114 18.766693 4.461598 118.012299 10.037420 -5.194992 55.155247 16.212273 5.573445 -21.212612 -18.770821 -4.464533 118.012230 -10.036212 5.190171 55.155182 -16.217052 -5.574986 
3.937916 21.526112 5.926380 0.000000 0.000000 -41.000301 -1.410386 4.905664 0.210876 -1.549191 9.231256 -0.253600 20.996788 0.000000 0.000000 17.765087 2.787204 -16.965273 2.184243 -36.544220 4.163932 -30.974487 -10.395337 -20.941187 1.892293 -32.199558 24.383497 19.998167 0.000000 0.000000 -4.279437 5.519909 1.341313 25.538671 -15.618676 -1.855596 52.036720 11.691569 -41.272274 6.577096 0.400390 -1.495974 -21.213114 18.766693 4.461598 118.012299 10.037420 -5.194992 55.155239 16.212273 5.573445 -21.212612 -18.770823 -4.464533 118.012230 -10.036211 5.190171 55.155178 -16.217052 -5.574986 
3.937916 21.526112 5.926380 0.000000 0.000000 -41.000294 -1.410386 4.905664 0.210876 -0.969417 9.077374 -0.158629 20.996786 0.000000 0.000000 18.020588 2.717061 -16.953453 2.184243 -36.544209 4.163931 -30.974482 -10.395336 -20.941187 1.484486 -32.085758 24.096054 19.998167 0.000000 0.000000 -4.025207 5.340396 1.308995 25.235006 -15.304645 -1.801414 52.159115 11.267360 -41.393806 6.434398 0.531837 -1.996969 -21.213114 18.766691 4.461598 118.012299 10.037420 -5.194992 55.155231 16.212269 5.573445 -21.212612 -18.770821 -4.464533 118.012230 -10.036211 5.190171 55.155170 -16.217049 -5.574985 
3.937916 21.526112 5.926380 0.000000 0.000000 -41.000301 -1.410386 4.905664 0.210876 -0.389006 8.922245 -0.065097 20.996786 0.000000 0.000000 18.276161 2.646839 -16.941940 2.184243 -36.544212 4.163931 -30.974482 -10.395335 -20.941185 1.077562 -31.970146 23.809711 19.998163 0.000000 0.000000 -3.771020 5.160649 1.277471 24.931795 -14.990022 -1.748984 52.280560 10.842416 -41.514378 6.290321 0.662238 -2.499107 -21.213114 18.766693 4.461598 118.012299 10.037420 -5.194992 55.155239 16.212271 5.573445 -21.212612 -18.770821 -4.464533 118.012230 -10.036211 5.190170 55.155178 -16.217051 -5.574986 
3.937916 21.526112 5.926380 0.000000 0.000000 -41.000301 -1.410386 4.905664 0.210876 0.192017 8.765889 0.026977 20.996786 0.000000 0.000000 18.531807 2.576542 -16.930742 2.184243 -36.544212 4.163931 -30.974482 -10.395336 -20.941187 0.671543 -31.852732 23.524506 19.998167 0.000000 0.000000 -3.516872 4.980670 1.246740 24.629021 -14.674824 -1.698304 52.401047 10.416756 -41.633995 6.144875 0.791572 -3.002370 -21.213114 18.766693 4.461598 118.012299 10.037420 -5.194992 55.155239 16.212271 5.573445 -21.212612 -18.770821 -4.464533 118.012230 -10.036211 5.190171 55.155178 -16.217051 -5.574986 
3.937916 21.526112 5.926380 0.000000 0.000000 -41.000305 -1.410386 4.905664 0.210876 0.773628 8.608323 0.117571 20.996786 0.000000 0.000000 18.787506 2.506169 -16.919851 2.184243 -36.544212 4.163931 -30.974485 -10.395336 -20.941187 0.266447 -31.733517 23.240450 19.998167 0.000000 0.000000 -3.262764 4.800469 1.216805 24.326674 -14.359066 -1.649368 52.520603 9.990401 -41.752674 5.998070 0.919817 -3.506741 -21.213114 18.766693 4.461598 118.012299 10.037420 -5.194992 55.155243 16.212271 5.573446 -21.212612 -18.770821 -4.464533 118.012230 -10.036211 5.190171 55.155178 -16.217051 -5.574986 
3.937916 21.526112 5.926380 0.000000 0.000000 -41.000301 -1.410387 4.905665 0.210876 1.355802 8.449565 0.206665 20.996786 0.000000 0.000000 19.043276 2.435724 -16.909275 2.184243 -36.544212 4.163931 -30.974485 -10.395337 -20.941189 -0.137707 -31.612520 22.957552 19.998169 0.000000 0.000000 -3.008694 4.620050 1.187665 24.024738 -14.042763 -1.602176 52.639225 9.563358 -41.870403 5.849916 1.046950 -4.012203 -21.213114 18.766693 4.461598 118.012299 10.037420 -5.194992 55.155243 16.212271 5.573445 -21.212616 -18.770821 -4.464533 118.012230 -10.036211 5.190171 55.155182 -16.217052 -5.574986 
3.937916 21.526112 5.926380 0.000000 0.000000 -41.000301 -1.410386 4.905665 0.210876 1.938513 8.289641 0.294242 20.996786 0.000000 0.000000 19.299107 2.365209 -16.899010 2.184243 -36.544220 4.163932 -30.974482 -10.395336 -20.941187 -0.540895 -31.489744 22.675850 19.998167 0.000000 0.000000 -2.754660 4.439420 1.159323 23.723223 -13.725945 -1.556724 52.756935 9.135654 -41.987221 5.700427 1.172950 -4.518738 -21.213116 18.766693 4.461598 118.012299 10.037421 -5.194992 55.155239 16.212271 5.573445 -21.212616 -18.770821 -4.464533 118.012245 -10.036212 5.190171 55.155178 -16.217051 -5.574986 
3.937916 21.526112 5.926380 0.000000 0.000000 -41.000301 -1.410386 4.905664 0.210876 2.521738 8.128569 0.380282 20.996784 0.000000 0.000000 19.554987 2.294625 -16.889055 2.184243 -36.544209 4.163930 -30.974478 -10.395335 -20.941185 -0.943101 -31.365206 22.395359 19.998167 0.000000 0.000000 -2.500661 4.258584 1.131778 23.422098 -13.408618 -1.513010 52.873745 8.707296 -42.103127 5.549612 1.297796 -5.026328 -21.213114 18.766693 4.461598 118.012299 10.037420 -5.194992 55.155235 16.212271 5.573445 -21.212612 -18.770817 -4.464532 118.012230 -10.036211 5.190171 55.155170 -16.217049 -5.574985 
3.937916 21.526112 5.926380 0.000000 0.000000 -41.000298 -1.410386 4.905664 0.210876 3.105451 7.966368 0.464765 20.996784 0.000000 0.000000 19.810934 2.223976 -16.879416 2.184243 -36.544212 4.163931 -30.974482 -10.395336 -20.941185 -1.344306 -31.238913 22.116087 19.998167 0.000000 0.000000 -2.246697 4.077549 1.105032 23.121353 -13.090797 -1.471031 52.989647 8.278304 -42.218128 5.397483 1.421466 -5.534954 -21.213114 18.766693 4.461598 118.012283 10.037420 -5.194992 55.155239 16.212271 5.573445 -21.212612 -18.770821 -4.464533 118.012215 -10.036210 5.190170 55.155178 -16.217051 -5.574986 
3.937916 21.526112 5.926380 0.000000 0.000000 -41.000301 -1.410386 4.905664 0.210876 3.689628 7.803060 0.547675 20.996786 0.000000 0.000000 20.066933 2.153263 -16.870092 2.184243 -36.544209 4.163931 -30.974482 -10.395336 -20.941187 -1.744492 -31.110876 21.838068 19.998167 0.000000 0.000000 -1.992766 3.896321 1.079085 22.820984 -12.772503 -1.430783 53.104668 7.848692 -42.332233 5.244053 1.543938 -6.044596 -21.213114 18.766693 4.461598 118.012299 10.037420 -5.194992 55.155239 16.212271 5.573445 -21.212612 -18.770821 -4.464533 118.012230 -10.036211 5.190171 55.155178 -16.217051 -5.574986 
3.937916 21.526112 5.926380 0.000000 0.000000 -41.000301 -1.410386 4.905664 0.210876 4.274245 7.638669 0.628993 20.996786 0.000000 0.000000 20.322985 2.082486 -16.861076 2.184243 -36.544212 4.163932 -30.974482 -10.395336 -20.941187 -2.143638 -30.981110 21.561312 19.998167 0.000000 0.000000 -1.738867 3.714905 1.053939 22.520985 -12.453758 -1.392265 53.218800 7.418478 -42.445446 5.089337 1.665192 -6.555237 -21.213116 18.766693 4.461598 118.012299 10.037420 -5.194992 55.155239 16.212271 5.573445 -21.212612 -18.770821 -4.464533 118.012230 -10.036211 5.190171 55.155178 -16.217051 -5.574986 
